<svg width="70" height="70" viewBox="0 0 70 70" fill="none" xmlns="http://www.w3.org/2000/svg">
<circle cx="35" cy="35" r="34.5" stroke="#DDDDDD"/>
<path d="M30.4 42.22C29.4133 42.22 28.5067 42.0133 27.68 41.6C26.8667 41.1867 26.22 40.5933 25.74 39.82C25.26 39.0467 25.02 38.12 25.02 37.04C25.02 35.9467 25.26 35.0133 25.74 34.24C26.22 33.4533 26.8667 32.8533 27.68 32.44C28.5067 32.0267 29.4133 31.82 30.4 31.82C31.3867 31.82 32.28 32.0267 33.08 32.44C33.8933 32.8533 34.54 33.4533 35.02 34.24C35.5 35.0133 35.74 35.9467 35.74 37.04C35.74 38.12 35.5 39.0467 35.02 39.82C34.54 40.5933 33.8933 41.1867 33.08 41.6C32.28 42.0133 31.3867 42.22 30.4 42.22ZM30.4 40.52C30.9867 40.52 31.5333 40.3867 32.04 40.12C32.56 39.8533 32.98 39.46 33.3 38.94C33.62 38.4067 33.78 37.7733 33.78 37.04C33.78 36.2933 33.62 35.66 33.3 35.14C32.9933 34.6067 32.58 34.2 32.06 33.92C31.54 33.64 30.9867 33.5 30.4 33.5C29.8 33.5 29.24 33.64 28.72 33.92C28.2 34.1867 27.7733 34.5867 27.44 35.12C27.12 35.64 26.96 36.28 26.96 37.04C26.96 37.7733 27.12 38.4067 27.44 38.94C27.76 39.46 28.18 39.8533 28.7 40.12C29.2333 40.3867 29.8 40.52 30.4 40.52ZM42.7539 38.98L39.8739 40.78L39.7539 40.34H46.1539V42H37.6739V40.34C38.6472 39.7133 39.5206 39.1867 40.2939 38.76C41.0672 38.3333 41.7206 37.9467 42.2539 37.6C42.7872 37.2533 43.1939 36.9 43.4739 36.54C43.7539 36.18 43.8939 35.7733 43.8939 35.32C43.8939 34.96 43.8139 34.6467 43.6539 34.38C43.4939 34.1133 43.2472 33.9 42.9139 33.74C42.5806 33.58 42.1472 33.5 41.6139 33.5C40.9472 33.5 40.3806 33.68 39.9139 34.04C39.4606 34.4 39.2339 34.8733 39.2339 35.46H37.4539C37.4006 34.7533 37.5472 34.1267 37.8939 33.58C38.2406 33.0333 38.7339 32.6 39.3739 32.28C40.0272 31.96 40.7672 31.8 41.5939 31.8C42.2606 31.8 42.8539 31.8867 43.3739 32.06C43.8939 32.2333 44.3406 32.4733 44.7139 32.78C45.0872 33.0733 45.3672 33.4267 45.5539 33.84C45.7539 34.24 45.8539 34.6733 45.8539 35.14C45.8539 35.54 45.7872 35.9067 45.6539 36.24C45.5206 36.5733 45.3206 36.8933 45.0539 37.2C44.8006 37.4933 44.4806 37.7867 44.0939 38.08C43.7072 38.3733 43.2606 38.6733 42.7539 38.98Z" fill="#AAAAAA"/>
</svg>
