<svg width="70" height="70" viewBox="0 0 70 70" fill="none" xmlns="http://www.w3.org/2000/svg">
<path d="M29.36 42.22C28.3867 42.22 27.4933 42.0133 26.68 41.6C25.8667 41.1867 25.22 40.5933 24.74 39.82C24.26 39.0467 24.02 38.12 24.02 37.04C24.02 35.9467 24.26 35.0133 24.74 34.24C25.22 33.4533 25.8667 32.8533 26.68 32.44C27.4933 32.0267 28.3867 31.82 29.36 31.82C30.3333 31.82 31.22 32.0267 32.02 32.44C32.82 32.8533 33.46 33.4533 33.94 34.24C34.42 35.0133 34.66 35.9467 34.66 37.04C34.66 38.12 34.42 39.0467 33.94 39.82C33.46 40.5933 32.82 41.1867 32.02 41.6C31.22 42.0133 30.3333 42.22 29.36 42.22ZM29.36 40.54C29.9467 40.54 30.4933 40.4067 31 40.14C31.52 39.86 31.94 39.46 32.26 38.94C32.58 38.4067 32.74 37.7733 32.74 37.04C32.74 36.2933 32.58 35.66 32.26 35.14C31.94 34.6067 31.52 34.2 31 33.92C30.4933 33.6267 29.9467 33.48 29.36 33.48C28.7733 33.48 28.2133 33.62 27.68 33.9C27.16 34.18 26.74 34.5867 26.42 35.12C26.1 35.64 25.94 36.28 25.94 37.04C25.94 37.7733 26.1 38.4067 26.42 38.94C26.74 39.46 27.16 39.86 27.68 40.14C28.2 40.4067 28.76 40.54 29.36 40.54ZM44.6358 31.92V44.9H42.7358V33.94L43.2358 34.12L38.2758 41.1L37.9158 40.42H43.0558V42.06H36.5958V40.42L42.7358 31.92H44.6358ZM44.3158 42.06V40.42H46.6158V42.06H44.3158Z" fill="#AAAAAA"/>
<circle cx="35" cy="35" r="34.5" stroke="#DDDDDD"/>
</svg>
