<svg width="70" height="70" viewBox="0 0 70 70" fill="none" xmlns="http://www.w3.org/2000/svg">
<circle cx="35" cy="35" r="34.5" stroke="#DDDDDD"/>
<path d="M31.4 42.22C30.4133 42.22 29.5067 42.0133 28.68 41.6C27.8667 41.1867 27.22 40.5933 26.74 39.82C26.26 39.0467 26.02 38.12 26.02 37.04C26.02 35.9467 26.26 35.0133 26.74 34.24C27.22 33.4533 27.8667 32.8533 28.68 32.44C29.5067 32.0267 30.4133 31.82 31.4 31.82C32.3867 31.82 33.28 32.0267 34.08 32.44C34.8933 32.8533 35.54 33.4533 36.02 34.24C36.5 35.0133 36.74 35.9467 36.74 37.04C36.74 38.12 36.5 39.0467 36.02 39.82C35.54 40.5933 34.8933 41.1867 34.08 41.6C33.28 42.0133 32.3867 42.22 31.4 42.22ZM31.4 40.52C31.9867 40.52 32.5333 40.3867 33.04 40.12C33.56 39.8533 33.98 39.46 34.3 38.94C34.62 38.4067 34.78 37.7733 34.78 37.04C34.78 36.2933 34.62 35.66 34.3 35.14C33.9933 34.6067 33.58 34.2 33.06 33.92C32.54 33.64 31.9867 33.5 31.4 33.5C30.8 33.5 30.24 33.64 29.72 33.92C29.2 34.1867 28.7733 34.5867 28.44 35.12C28.12 35.64 27.96 36.28 27.96 37.04C27.96 37.7733 28.12 38.4067 28.44 38.94C28.76 39.46 29.18 39.8533 29.7 40.12C30.2333 40.3867 30.8 40.52 31.4 40.52ZM38.2539 33.76V32.02H42.6939V42H40.7539V33.76H38.2539Z" fill="#AAAAAA"/>
</svg>
