<svg width="70" height="70" viewBox="0 0 70 70" fill="none" xmlns="http://www.w3.org/2000/svg">
<circle cx="35" cy="35" r="34.5" stroke="#DDDDDD"/>
<path d="M30.4 42.22C29.4133 42.22 28.5067 42.0133 27.68 41.6C26.8667 41.1867 26.22 40.5933 25.74 39.82C25.26 39.0467 25.02 38.12 25.02 37.04C25.02 35.9467 25.26 35.0133 25.74 34.24C26.22 33.4533 26.8667 32.8533 27.68 32.44C28.5067 32.0267 29.4133 31.82 30.4 31.82C31.3867 31.82 32.28 32.0267 33.08 32.44C33.8933 32.8533 34.54 33.4533 35.02 34.24C35.5 35.0133 35.74 35.9467 35.74 37.04C35.74 38.12 35.5 39.0467 35.02 39.82C34.54 40.5933 33.8933 41.1867 33.08 41.6C32.28 42.0133 31.3867 42.22 30.4 42.22ZM30.4 40.52C30.9867 40.52 31.5333 40.3867 32.04 40.12C32.56 39.8533 32.98 39.46 33.3 38.94C33.62 38.4067 33.78 37.7733 33.78 37.04C33.78 36.2933 33.62 35.66 33.3 35.14C32.9933 34.6067 32.58 34.2 32.06 33.92C31.54 33.64 30.9867 33.5 30.4 33.5C29.8 33.5 29.24 33.64 28.72 33.92C28.2 34.1867 27.7733 34.5867 27.44 35.12C27.12 35.64 26.96 36.28 26.96 37.04C26.96 37.7733 27.12 38.4067 27.44 38.94C27.76 39.46 28.18 39.8533 28.7 40.12C29.2333 40.3867 29.8 40.52 30.4 40.52ZM42.1939 38.24L42.2139 38.14C42.8139 38.18 43.3672 38.26 43.8739 38.38C44.3806 38.5 44.8206 38.6867 45.1939 38.94C45.5672 39.1933 45.8539 39.5267 46.0539 39.94C46.2539 40.3533 46.3539 40.86 46.3539 41.46C46.3539 42.1667 46.1672 42.8 45.7939 43.36C45.4339 43.9333 44.9139 44.3867 44.2339 44.72C43.5539 45.0533 42.7606 45.22 41.8539 45.22C41.0006 45.22 40.2272 45.0467 39.5339 44.7C38.8539 44.3667 38.3272 43.9067 37.9539 43.32C37.5939 42.7333 37.4406 42.08 37.4939 41.36H39.2739C39.2739 41.7733 39.3739 42.14 39.5739 42.46C39.7872 42.78 40.0872 43.0333 40.4739 43.22C40.8606 43.4067 41.3206 43.5 41.8539 43.5C42.6406 43.5 43.2539 43.3 43.6939 42.9C44.1472 42.5133 44.3739 41.9733 44.3739 41.28C44.3739 40.6 44.1206 40.0733 43.6139 39.7C43.1206 39.3133 42.4339 39.12 41.5539 39.12H40.2339V37.46H41.5539C42.1539 37.46 42.6472 37.3867 43.0339 37.24C43.4206 37.08 43.7072 36.8533 43.8939 36.56C44.0806 36.2533 44.1739 35.8933 44.1739 35.48C44.1739 34.9067 43.9806 34.44 43.5939 34.08C43.2206 33.72 42.6339 33.54 41.8339 33.54C41.1272 33.54 40.5539 33.7267 40.1139 34.1C39.6739 34.46 39.4472 34.9267 39.4339 35.5H37.6739C37.6206 34.9667 37.6939 34.48 37.8939 34.04C38.0939 33.5867 38.3872 33.1933 38.7739 32.86C39.1739 32.5133 39.6339 32.2533 40.1539 32.08C40.6872 31.8933 41.2472 31.8 41.8339 31.8C42.7139 31.8 43.4739 31.9533 44.1139 32.26C44.7672 32.5667 45.2672 32.9867 45.6139 33.52C45.9739 34.0533 46.1539 34.66 46.1539 35.34C46.1539 35.9 46.0539 36.3667 45.8539 36.74C45.6672 37.1133 45.3939 37.4067 45.0339 37.62C44.6739 37.8333 44.2539 37.9867 43.7739 38.08C43.2939 38.1733 42.7672 38.2267 42.1939 38.24Z" fill="#AAAAAA"/>
</svg>
